<svg width="24" height="24" viewBox="0 0 24 24" fill="none" xmlns="http://www.w3.org/2000/svg">
<path d="M5.39648 0C5.39648 0 6.20016 2.59467 7.61939 4.14848C8.8313 5.47533 11.0427 4.67348 11.0427 4.67348C11.0427 4.67348 10.8384 2.75723 9.39066 1.57561C8.39114 0.759844 5.39648 0 5.39648 0Z" fill="#1A1918"/>
<path d="M10.5356 3.70234C10.6482 3.76754 11.007 4.08587 11.1205 4.14512L11.482 4.3345L11.7738 4.48726C12.0122 4.612 12.1019 4.90787 11.9731 5.14398C11.8443 5.38009 11.5469 5.46475 11.3131 5.33186L11.0267 5.16911L10.6697 4.96581C10.5443 4.89297 10.4217 4.81773 10.3014 4.74058C9.82136 4.43106 6.11931 0.882669 6.25666 0.748513C6.39011 0.618247 10.0851 3.44026 10.5356 3.70234Z" fill="#1A1918"/>
<path d="M11.3119 9.25121C11.2832 9.06535 11.2612 8.89379 11.241 8.71571C11.2212 8.53909 11.2033 8.36246 11.1888 8.18556C11.1591 7.83174 11.1392 7.47685 11.1297 7.12051C11.1098 6.40787 11.1336 5.68918 11.2169 4.96463C11.2612 4.60239 11.3213 4.23882 11.4027 3.87451C11.486 3.51034 11.5951 3.14579 11.7357 2.78387C11.8748 2.42185 12.0571 2.06331 12.2889 1.72131C12.5205 1.37992 12.8071 1.05521 13.1533 0.781041L13.1626 0.773682C13.5154 0.494354 14.0278 0.553885 14.3071 0.906666C14.5865 1.25945 14.5269 1.77184 14.1741 2.05117C14.1516 2.06903 14.1275 2.08595 14.1038 2.10109C13.6773 2.37076 13.3047 2.81715 13.0279 3.36151C12.889 3.63301 12.7672 3.92303 12.6644 4.22588C12.5633 4.52963 12.4774 4.8436 12.4045 5.16385C12.2634 5.80618 12.1718 6.47101 12.1224 7.14287C12.0972 7.47878 12.0817 7.81665 12.0756 8.1549C12.0723 8.32407 12.0721 8.49324 12.0739 8.66223C12.0755 8.82967 12.0805 9.00334 12.0885 9.16182L12.089 9.17176C12.1 9.38748 11.9339 9.57123 11.7182 9.58215C11.5167 9.59242 11.3427 9.44626 11.3119 9.25121Z" fill="#1A1918"/>
<path d="M19.9247 6.7252C17.8085 5.32416 15.9519 5.23022 14.562 5.53908C12.8763 5.9137 11.1228 5.9137 9.43704 5.53908C8.04715 5.23022 6.19052 5.32411 4.07435 6.7252C0.0931644 9.36103 0.687398 19.9334 8.48773 23.5433C9.80309 24.1521 14.196 24.1521 15.5114 23.5433C23.3117 19.9334 23.9059 9.36103 19.9247 6.7252Z" fill="#1A1918"/>
<path d="M19.9251 6.7252C17.809 5.32415 15.9523 5.23021 14.5625 5.53907C14.5435 5.54329 14.5245 5.5468 14.5055 5.55088C15.3277 5.73595 16.2197 6.1003 17.1635 6.72515C21.1446 9.36102 20.5505 19.9334 12.7501 23.5433C12.3088 23.7475 11.5209 23.8831 10.6191 23.9504C12.405 24.0834 14.6377 23.9478 15.5118 23.5433C23.3121 19.9334 23.9064 9.36102 19.9251 6.7252Z" fill="#1A1918"/>
</svg>
