<svg width="24" height="24" viewBox="0 0 24 24" fill="none" xmlns="http://www.w3.org/2000/svg">
<path d="M21.5573 5.94282C19.978 6.65953 18.1723 6.7402 16.5403 6.1538C14.868 5.55188 13.5059 4.30462 12.752 2.69744C14.3312 1.98073 16.1369 1.90006 17.7689 2.48646C19.4413 3.08838 20.8033 4.33564 21.5573 5.94282Z" fill="#1A1918"/>
<path d="M21.4297 9.75319C21.4297 11.227 20.4306 12.5239 19.0282 12.9148C18.4139 11.8444 17.3435 11.0718 16.0869 10.8546C16.1831 10.4978 16.2358 10.1286 16.2358 9.75319C16.2358 8.97443 16.0186 8.24841 15.6494 7.62167C15.8356 7.40448 16.0497 7.21212 16.2886 7.05078C16.6764 7.1842 17.0735 7.28969 17.4769 7.36105C17.4955 7.59064 17.6817 7.7768 17.9206 7.78611C17.9299 7.78611 18.9599 7.82955 19.5029 8.42526C19.7511 8.69209 19.8597 9.03648 19.8349 9.47395C19.8225 9.73148 20.018 9.94866 20.2755 9.96417H20.3003C20.5454 9.96417 20.7502 9.77181 20.7657 9.5236C20.8029 8.83171 20.6075 8.24841 20.1855 7.79232C20.049 7.64339 19.8969 7.51928 19.7356 7.41379C19.9373 7.38897 20.139 7.35174 20.3375 7.3114C21.0294 7.93504 21.4297 8.81929 21.4297 9.75319Z" fill="#1A1918"/>
<path d="M16.534 19.5363C16.534 21.3451 15.0602 22.8189 13.2514 22.8189C11.4394 22.8189 9.96875 21.3451 9.96875 19.5363C9.96875 19.4184 9.97496 19.3005 9.98737 19.1826C10.1549 19.2043 10.3225 19.2167 10.4962 19.2167C12.2988 19.2167 13.8378 18.0749 14.4366 16.4771C15.6869 16.9611 16.534 18.1742 16.534 19.5363Z" fill="#1A1918"/>
<path d="M18.6563 15.0033C18.6563 16.2102 18.0637 17.2496 17.0926 17.8112C16.6272 16.7811 15.7615 15.9589 14.6663 15.568C14.6911 15.3818 14.7097 15.1957 14.7097 15.0033C14.7097 13.9329 14.3064 12.9587 13.6455 12.214C14.1637 11.8945 14.7594 11.7207 15.3737 11.7207C17.1825 11.7207 18.6563 13.1945 18.6563 15.0033Z" fill="#1A1918"/>
<path d="M10.4965 11.7207C8.68763 11.7207 7.21387 13.1945 7.21387 15.0033C7.21387 16.8122 8.68763 18.2859 10.4965 18.2859C12.3053 18.2859 13.7791 16.8122 13.7791 15.0033C13.7791 13.1945 12.3053 11.7207 10.4965 11.7207ZM12.6032 16.1606C12.5256 16.3375 12.355 16.4429 12.175 16.4429C12.113 16.4429 12.0509 16.4305 11.992 16.4057C11.7562 16.3033 11.6476 16.0303 11.7468 15.7945C12.4605 14.1284 11.176 13.4551 11.027 13.3837C10.7974 13.272 10.6981 12.9959 10.8067 12.7632C10.9153 12.5336 11.1884 12.4312 11.4211 12.5398C12.2091 12.9059 13.4719 14.1315 12.6032 16.1606Z" fill="#1A1918"/>
<path d="M8.54445 7.37668C7.93943 6.79648 7.13274 6.4707 6.28261 6.4707C4.47376 6.4707 3 7.94446 3 9.75331C3 11.5622 4.47376 13.0359 6.28261 13.0359C6.45326 13.0359 6.6239 13.0235 6.79144 12.9956C7.12343 12.3844 7.60744 11.8631 8.18764 11.4815C7.93943 10.9385 7.80912 10.3583 7.80912 9.75331C7.80912 8.87216 8.08215 8.05306 8.54445 7.37668ZM5.4542 8.03134C5.39525 8.06857 4.17901 8.87526 4.70026 10.1194C4.79954 10.3552 4.69095 10.6283 4.45204 10.7275C4.39309 10.7524 4.33104 10.7648 4.27209 10.7648C4.09213 10.7648 3.91839 10.6593 3.84392 10.4793C3.17685 8.89698 4.27829 7.67143 4.95467 7.24326C5.17186 7.10675 5.46041 7.1719 5.59692 7.38909C5.73344 7.60628 5.66828 7.89172 5.4542 8.03134Z" fill="#1A1918"/>
<path d="M12.0232 6.4709C11.8603 6.4709 11.7014 6.48672 11.5447 6.50968C11.9025 5.48425 12.42 3.71357 12.567 1.69994C12.586 1.44366 12.393 1.22058 12.1367 1.20197C11.8848 1.18304 11.6574 1.37572 11.6387 1.63231C11.4554 4.14204 10.6412 6.31235 10.4036 6.90155C9.41134 7.46716 8.74023 8.53292 8.74023 9.75382C8.74023 10.213 8.83642 10.6505 9.01637 11.0631C9.47867 10.8894 9.97509 10.7901 10.4963 10.7901C11.4054 10.7901 12.2431 11.0818 12.9319 11.572C13.5773 11.1128 14.3405 10.846 15.1317 10.7994C15.2437 10.464 15.3058 10.1134 15.3058 9.75351C15.3058 7.94466 13.832 6.4709 12.0232 6.4709Z" fill="#1A1918"/>
</svg>
