<svg width="24" height="24" viewBox="0 0 24 24" fill="none" xmlns="http://www.w3.org/2000/svg">
<g clip-path="url(#clip0_1_50042)">
<path d="M14.9263 0C10.6355 0 7.2287 1.25114 6.19141 3.05109C7.22514 2.8942 8.29267 2.8125 9.34586 2.8125C14.3855 2.8125 19.8093 4.57308 19.8093 8.4375C19.8093 9.22645 19.5532 10.3677 18.3808 11.4471L18.4028 18.2812H20.4902C21.6551 18.2812 22.5995 17.3369 22.5995 16.1719V6.87197C22.5995 6.66666 22.6826 6.47578 22.8223 6.36112C23.791 5.56669 23.9946 4.75781 23.9946 4.2188C23.9946 1.81345 20.0961 0 14.9263 0Z" fill="#1A1918"/>
<path d="M9.14648 4.3125C3.93553 4.3125 0.00585938 6.12595 0.00585938 8.53125C0.00585938 9.07027 0.211172 9.87914 1.18758 10.6736C1.32834 10.7882 1.41211 10.9792 1.41211 11.1844V21.8906C1.41211 23.0538 2.35833 24 3.52148 24H14.7715C15.9346 24 16.8809 23.0538 16.8809 21.8906V11.1845C16.8809 10.9792 16.9646 10.7883 17.1054 10.6736C18.0818 9.87919 18.2871 9.07031 18.2871 8.5313C18.2871 6.12595 14.3574 4.3125 9.14648 4.3125ZM5.83683 12.956L8.64933 10.1435C8.92397 9.86888 9.36895 9.86888 9.64359 10.1435C9.91823 10.4182 9.91823 10.8631 9.64359 11.1378L6.83109 13.9503C6.69375 14.0876 6.51384 14.1563 6.33398 14.1563C6.15413 14.1563 5.97417 14.0876 5.83687 13.9503C5.56219 13.6756 5.56219 13.2307 5.83683 12.956ZM12.4561 16.7627L9.64359 19.5752C9.36891 19.8499 8.92402 19.8499 8.64933 19.5752C8.37469 19.3006 8.37469 18.8556 8.64933 18.581L11.4618 15.7685C11.7365 15.4938 12.1815 15.4938 12.4561 15.7685C12.7307 16.0431 12.7308 16.4881 12.4561 16.7627ZM12.4561 12.544L6.83109 18.169C6.55641 18.4437 6.11152 18.4437 5.83683 18.169C5.56219 17.8943 5.56219 17.4494 5.83683 17.1747L11.4618 11.5497C11.7365 11.2751 12.1815 11.2751 12.4561 11.5497C12.7307 11.8244 12.7308 12.2693 12.4561 12.544Z" fill="#1A1918"/>
</g>
<defs>
<clipPath id="clip0_1_50042">
<rect width="24" height="24" fill="white"/>
</clipPath>
</defs>
</svg>
