<svg width="24" height="24" viewBox="0 0 24 24" fill="none" xmlns="http://www.w3.org/2000/svg">
<g clip-path="url(#clip0_1_50003)">
<path d="M23.2967 0H19.9998C18.2325 0 16.7998 1.43269 16.7998 3.20002H23.2967C23.685 3.20002 23.9998 2.8852 23.9998 2.49689V0.703125C23.9998 0.314812 23.685 0 23.2967 0V0Z" fill="#1A1918"/>
<path d="M18.4 1.59919C18.4 0.716016 19.116 0 20 0H1.59998C0.715969 0 0 0.716016 0 1.59919C0 2.23997 0.11025 4.10934 1.70002 5.69677L3.3 7.2968C3.74798 7.74722 3.99998 8.35758 3.99998 8.994V12.8C3.99998 13.6836 4.71994 14.4 5.59997 14.4C6.48394 14.4 7.19995 13.6836 7.19995 12.8C7.19995 11.9164 7.91991 11.2 8.79994 11.2C9.68391 11.2 10.3999 11.9164 10.3999 12.8V22.4C10.3999 23.2836 11.1199 24 11.9999 24C12.8839 24 13.5999 23.2836 13.5999 22.4V6.39923C13.5999 4.64887 15.024 3.20002 16.7999 3.20002C17.6788 3.20002 18.4 2.48892 18.4 1.59919Z" fill="#1A1918"/>
<path d="M8.7998 11.2C9.68377 11.2 10.3998 11.9164 10.3998 12.8V22.4C10.3998 23.2836 11.1197 24 11.9998 24C12.8837 24 13.5998 23.2836 13.5998 22.4V6.39919C13.5998 4.64883 15.0239 3.19997 16.7998 3.19997C17.6786 3.19997 18.3998 2.48887 18.3998 1.59919C18.3998 0.716016 19.1158 0 19.9998 0H8.7998V11.2Z" fill="#1A1918"/>
</g>
<defs>
<clipPath id="clip0_1_50003">
<rect width="24" height="24" fill="white"/>
</clipPath>
</defs>
</svg>
