<svg width="24" height="24" viewBox="0 0 24 24" fill="none" xmlns="http://www.w3.org/2000/svg">
<path d="M4.76367 5.29346H8.65041V9.18014H4.76367V5.29346Z" fill="#1A1918"/>
<path d="M10.0566 5.29346H13.9434V9.18014H10.0566V5.29346Z" fill="#1A1918"/>
<path d="M4.76367 10.5854H8.65041V14.4722H4.76367V10.5854Z" fill="#1A1918"/>
<path d="M10.0566 10.5854H13.9434V14.4722H10.0566V10.5854Z" fill="#1A1918"/>
<path d="M15.3496 5.29346H19.2363V9.18014H15.3496V5.29346Z" fill="#1A1918"/>
<path d="M8.65041 0H5.4668C5.07848 0 4.76367 0.314812 4.76367 0.703125V3.88673H8.65041V0Z" fill="#1A1918"/>
<path d="M10.0566 0H13.9434V3.88673H10.0566V0Z" fill="#1A1918"/>
<path d="M15.3496 3.88673H19.2363V0.703125C19.2363 0.314812 18.9215 0 18.5332 0H15.3496V3.88673Z" fill="#1A1918"/>
<path d="M15.3496 10.5854H19.2363V14.4722H15.3496V10.5854Z" fill="#1A1918"/>
<path d="M10.1726 19.8645C8.76848 17.8855 7.54134 16.1564 4.76367 15.9092V23.2967C4.76367 23.685 5.07848 23.9999 5.4668 23.9999H14.1536C12.3297 22.9048 11.212 21.3296 10.1726 19.8645Z" fill="#1A1918"/>
<path d="M8.54395 15.8789C9.68399 16.7465 10.5088 17.9085 11.3193 19.051C12.9808 21.3928 14.5576 23.615 18.7787 23.955C19.0457 23.8552 19.2361 23.5987 19.2361 23.2969V15.8789H8.54395Z" fill="#1A1918"/>
</svg>
