<svg width="24" height="24" viewBox="0 0 24 24" fill="none" xmlns="http://www.w3.org/2000/svg">
<path d="M16.7268 6.74881C16.4074 6.73867 16.0876 6.75026 15.7697 6.78349C15.2429 5.88339 14.5571 5.0864 13.7456 4.43131C10.1981 1.57287 5.3484 2.22724 5.14403 2.25631C4.97403 2.28011 4.81734 2.36151 4.70012 2.48692C4.5829 2.61233 4.51225 2.77415 4.49996 2.94537C4.49225 3.08006 4.52016 3.21441 4.5809 3.33489C4.64163 3.45536 4.73303 3.55771 4.8459 3.63162C6.47715 4.72662 7.22434 6.52943 7.53653 8.28631C5.81981 8.46623 4.23703 9.29628 3.11289 10.6062C1.98875 11.9161 1.40849 13.6065 1.49116 15.3306C1.57382 17.0548 2.31314 18.6819 3.55744 19.8782C4.80173 21.0746 6.45667 21.7494 8.18272 21.7642C9.90878 21.7791 11.5751 21.1329 12.8398 19.9582C14.1045 18.7834 14.8717 17.1692 14.9841 15.4468C15.0964 13.7243 14.5454 12.0242 13.4439 10.6951C12.3425 9.36607 10.7743 8.50889 9.0609 8.29943C8.76934 6.42912 8.11496 4.87381 7.12496 3.68974C8.68778 3.75724 10.9912 4.13787 12.81 5.60974C13.3526 6.04903 13.8266 6.56693 14.2162 7.14631C14.0381 7.21099 13.8609 7.28131 13.6865 7.36099C13.5913 7.40213 13.5051 7.46164 13.4329 7.53612C13.3606 7.6106 13.3038 7.69859 13.2656 7.79506C13.2104 7.94167 13.2025 8.10189 13.2431 8.25322C13.2836 8.40454 13.3705 8.53938 13.4915 8.63881C13.9631 9.02824 14.3903 9.46839 14.7656 9.95131C14.7832 9.97411 14.8037 9.99459 14.8265 10.0122C15 10.1379 15.5465 10.4988 16.5 10.4988C17.639 10.4988 18.2043 9.98224 18.2278 9.95974L18.2193 9.96818C18.289 9.8985 18.3717 9.84322 18.4628 9.80551C18.5538 9.7678 18.6514 9.74839 18.75 9.74839C18.8485 9.74839 18.9461 9.7678 19.0371 9.80551C19.1282 9.84322 19.2109 9.8985 19.2806 9.96818C19.3503 10.0379 19.4055 10.1206 19.4433 10.2116C19.481 10.3027 19.5004 10.4003 19.5004 10.4988C19.5004 10.5974 19.481 10.6949 19.4433 10.786C19.4055 10.877 19.3503 10.9597 19.2806 11.0294C19.1812 11.1288 18.2597 11.9988 16.5 11.9988H16.349C16.3027 11.9961 16.2564 12.005 16.2143 12.0245C16.1722 12.044 16.1356 12.0737 16.1078 12.1108C16.0799 12.148 16.0617 12.1914 16.0547 12.2373C16.0477 12.2832 16.0522 12.3301 16.0678 12.3738C16.4379 13.4757 16.5708 14.6434 16.4577 15.8003C16.3446 16.9571 15.9881 18.077 15.4115 19.0863C15.3052 19.2616 15.2716 19.4715 15.3178 19.6713C15.3566 19.8236 15.4423 19.9598 15.5628 20.0607C15.6832 20.1616 15.8323 20.2222 15.989 20.2338C16.1559 20.246 16.3256 20.2526 16.4925 20.2526C18.2827 20.2826 20.0115 19.6003 21.2987 18.3557C22.5858 17.1111 23.3258 15.4062 23.3559 13.616C23.386 11.8258 22.7037 10.0969 21.4591 8.8098C20.2145 7.52265 18.5096 6.78264 16.7193 6.75256L16.7268 6.74881ZM9.97684 11.456L9.9684 11.4644C10.1091 11.3237 10.3 11.2446 10.499 11.2446C10.698 11.2446 10.8889 11.3237 11.0297 11.4644C11.1704 11.6052 11.2494 11.796 11.2494 11.9951C11.2494 12.1941 11.1704 12.3849 11.0297 12.5257C10.9312 12.6288 10.0097 13.4988 8.24996 13.4988C6.49028 13.4988 5.56871 12.6288 5.46934 12.5294C5.39966 12.4597 5.34438 12.377 5.30667 12.286C5.26896 12.1949 5.24955 12.0974 5.24955 11.9988C5.24955 11.7998 5.32861 11.6089 5.46934 11.4682C5.61007 11.3274 5.80094 11.2484 5.99996 11.2484C6.19899 11.2484 6.38986 11.3274 6.53059 11.4682L6.52215 11.4597C6.54559 11.4822 7.1109 11.9988 8.24996 11.9988C9.38903 11.9988 9.95434 11.4822 9.97778 11.4597L9.97684 11.456Z" fill="#31302F"/>
</svg>
