<svg width="24" height="24" viewBox="0 0 24 24" fill="none" xmlns="http://www.w3.org/2000/svg">
<g clip-path="url(#clip0_1_49953)">
<path d="M11.5503 20.4993V14.3994C11.5503 13.8994 10.9503 13.6993 10.6503 13.9994L6.35034 18.2994C6.15032 18.4994 6.15032 18.8994 6.40035 19.0993C7.70033 20.1493 9.30034 20.7994 11.0004 20.9993C11.2503 21.0993 11.5503 20.7994 11.5503 20.4993Z" fill="#1A1918"/>
<path d="M4.84973 6.35056C3.79972 7.65055 3.1497 9.25056 2.94973 10.9506C2.89973 11.2506 3.14975 11.5506 3.49974 11.5506H9.59971C10.0997 11.5506 10.2997 10.9506 9.9997 10.6506L5.69971 6.35061C5.44974 6.10059 5.04975 6.10059 4.84973 6.35056Z" fill="#1A1918"/>
<path d="M2.94983 13.0501C3.14985 14.8001 3.84982 16.3501 4.84982 17.6501C5.04984 17.9001 5.39983 17.9001 5.64981 17.7001L9.9498 13.4001C10.2998 13.0501 10.0498 12.5001 9.5498 12.5001H3.49984C3.19981 12.4501 2.89982 12.7501 2.94983 13.0501Z" fill="#1A1918"/>
<path d="M21.0498 10.95C20.8498 9.20006 20.1498 7.65005 19.1498 6.35002C18.9498 6.10004 18.5998 6.10004 18.3499 6.30001L14.0499 10.6C13.6999 10.95 13.9499 11.5 14.4499 11.5H20.5499C20.7999 11.55 21.0998 11.25 21.0498 10.95Z" fill="#1A1918"/>
<path d="M11.5496 9.59969V3.49971C11.5496 3.19973 11.2996 2.94971 10.9495 2.94971C9.19957 3.14973 7.64956 3.8497 6.34953 4.8497C6.09955 5.04972 6.09955 5.39971 6.29952 5.64968L10.5995 9.94967C10.9496 10.2997 11.5496 10.0997 11.5496 9.59969Z" fill="#1A1918"/>
<path d="M12.4502 3.49976V9.59974C12.4502 10.0997 13.0502 10.2998 13.3502 9.99973L17.6502 5.69974C17.8502 5.49972 17.8502 5.09973 17.6002 4.89976C16.3002 3.84975 14.7002 3.19973 13.0002 2.99976C12.7502 2.89975 12.4502 3.14978 12.4502 3.49976Z" fill="#1A1918"/>
<path d="M19.1503 17.6502C20.2003 16.3502 20.8503 14.7502 21.0503 13.0502C21.1003 12.7502 20.8503 12.4502 20.5003 12.4502H14.4003C13.9003 12.4502 13.7003 13.0502 14.0003 13.3502L18.3003 17.6502C18.5503 17.9002 18.9503 17.9002 19.1503 17.6502Z" fill="#1A1918"/>
<path d="M13.0496 21.0498C14.7996 20.8498 16.3496 20.1498 17.6496 19.1498C17.8996 18.9498 17.8996 18.5998 17.6996 18.3499L13.3996 14.0499C13.0496 13.6999 12.4996 13.9499 12.4996 14.4499V20.5499C12.4496 20.7999 12.7496 21.0998 13.0496 21.0498Z" fill="#1A1918"/>
<path d="M12 0C5.35 0 0 5.35 0 12C0 12.15 0 12.3 0 12.45C0.249977 18.85 5.50001 24 12 24C18.5 24 23.75 18.85 24 12.45C24 12.3 24 12.15 24 12C24 5.35 18.65 0 12 0ZM12 22.4C6.4 22.4 1.85004 17.95 1.60001 12.45C1.60001 12.3 1.60001 12.15 1.60001 12C1.60001 6.24999 6.25004 1.59996 12 1.59996C17.75 1.59996 22.4 6.24999 22.4 12C22.4 12.15 22.4 12.3 22.4 12.45C22.15 18 17.6 22.4 12 22.4Z" fill="#1A1918"/>
</g>
<defs>
<clipPath id="clip0_1_49953">
<rect width="24" height="24" fill="white"/>
</clipPath>
</defs>
</svg>
