<svg width="24" height="24" viewBox="0 0 24 24" fill="none" xmlns="http://www.w3.org/2000/svg">
<path d="M13.2555 6.22865C11.6229 6.59268 12.1541 7.22868 10.1866 8.34951C9.30904 8.98696 8.50724 8.64454 7.87612 9.55781C7.24504 10.471 6.11221 11.6083 5.96371 12.6876C5.81526 13.7669 5.25632 13.2019 3.9756 14.2812C2.69488 15.3605 3.35127 15.2468 2.50977 15.8557C1.66832 16.4646 1.48926 17.7963 1.48926 17.7963H22.4799C22.4799 17.7963 22.7274 17.1044 21.8364 16.2742C20.9455 15.444 20.4506 13.0641 19.6339 12.8704C18.8172 12.6766 17.852 11.4867 17.6788 11.0439C17.5056 10.6011 17.4561 9.90923 16.5404 9.2174C15.6247 8.52557 15.6989 7.63996 15.3277 7.2802C14.9565 6.92053 14.0606 6.04921 13.2555 6.22865Z" fill="#1A1918"/>
<path opacity="0.2" d="M22.4792 17.7964H21.0135C20.9427 17.5334 20.7707 17.1983 20.383 16.8368C19.4919 16.0066 18.9969 13.6268 18.1803 13.4328C17.3638 13.2392 16.3986 12.0495 16.2252 11.6065C16.0523 11.1636 16.0025 10.4717 15.0871 9.77982C14.1711 9.08794 14.2457 8.20247 13.8744 7.84294C13.5453 7.52372 12.8043 6.80419 12.0801 6.76857C12.3309 6.54216 12.6388 6.36591 13.2548 6.22857C14.0597 6.0495 14.9559 6.92044 15.3271 7.28044C15.6984 7.63997 15.6238 8.52544 16.5398 9.21732C17.4552 9.90919 17.505 10.6011 17.6779 11.044C17.8513 11.487 18.8165 12.6767 19.633 12.8703C20.4501 13.0643 20.9446 15.4441 21.8357 16.2743C22.7268 17.1045 22.4792 17.7964 22.4792 17.7964Z" fill="#1A1918"/>
<path d="M11.9751 12.3952C11.9373 12.3952 11.8991 12.386 11.8635 12.3668C10.7883 11.783 9.85638 12.2467 9.81724 12.2668C9.70235 12.3255 9.56107 12.2806 9.50186 12.1659C9.44261 12.0512 9.48686 11.9104 9.60133 11.8507C9.64915 11.8258 10.7865 11.2487 12.0872 11.9548C12.2009 12.0165 12.2431 12.1589 12.1813 12.2726C12.1388 12.3508 12.0583 12.3952 11.9751 12.3952Z" fill="#1A1918"/>
<path d="M14.2333 15.9371C14.1955 15.9371 14.1572 15.928 14.1217 15.9087C13.0379 15.3203 12.0857 15.8034 12.0762 15.8083C11.9614 15.8682 11.8199 15.8235 11.76 15.7088C11.7001 15.5941 11.7447 15.4525 11.8595 15.3927C11.9072 15.3678 13.0447 14.7907 14.3453 15.4967C14.4591 15.5584 14.5012 15.7008 14.4395 15.8145C14.397 15.8928 14.3164 15.9371 14.2333 15.9371Z" fill="#1A1918"/>
<path d="M14.9843 9.80827C14.9465 9.80827 14.9082 9.79913 14.8727 9.77982C13.7889 9.19149 12.8366 9.67454 12.8271 9.67946C12.7124 9.73918 12.5708 9.69479 12.511 9.57999C12.4511 9.46519 12.4957 9.32363 12.6104 9.26382C12.6582 9.23888 13.7956 8.66176 15.0963 9.36788C15.2101 9.42962 15.2522 9.57193 15.1905 9.68569C15.148 9.76393 15.0674 9.80827 14.9843 9.80827Z" fill="#1A1918"/>
<path d="M7.42044 16.2565C7.38266 16.2565 7.34436 16.2473 7.30883 16.2281C6.23366 15.6443 5.30169 16.1081 5.26255 16.1281C5.14757 16.1868 5.00643 16.1419 4.94718 16.0272C4.88793 15.9125 4.93218 15.7717 5.04665 15.712C5.09446 15.6871 6.23188 15.11 7.53252 15.8161C7.64629 15.8778 7.68843 16.0202 7.62665 16.1339C7.58418 16.2121 7.5036 16.2565 7.42044 16.2565Z" fill="#1A1918"/>
<path d="M8.82716 14.563C8.59395 14.563 8.4043 14.3733 8.4043 14.1401C8.4043 13.907 8.594 13.7173 8.82716 13.7173C9.06031 13.7173 9.25002 13.907 9.25002 14.1401C9.25002 14.3733 9.06031 14.563 8.82716 14.563ZM8.82716 14.0943C8.80184 14.0943 8.78127 14.1148 8.78127 14.1401C8.78127 14.1655 8.80184 14.186 8.82716 14.186C8.85247 14.186 8.87305 14.1655 8.87305 14.1401C8.87305 14.1148 8.85242 14.0943 8.82716 14.0943Z" fill="#1A1918"/>
<path d="M14.2334 13.0161C14.0002 13.0161 13.8105 12.8264 13.8105 12.5933C13.8105 12.3601 14.0002 12.1704 14.2334 12.1704C14.4666 12.1704 14.6563 12.3601 14.6563 12.5933C14.6563 12.8264 14.4665 13.0161 14.2334 13.0161ZM14.2334 12.5474C14.2081 12.5474 14.1875 12.5679 14.1875 12.5933C14.1875 12.6186 14.2081 12.6392 14.2334 12.6392C14.2587 12.6392 14.2793 12.6186 14.2793 12.5933C14.2793 12.5679 14.2587 12.5474 14.2334 12.5474Z" fill="#1A1918"/>
<path d="M11.0313 10.1861C10.7981 10.1861 10.6084 9.99635 10.6084 9.76319C10.6084 9.53004 10.7981 9.34033 11.0313 9.34033C11.2644 9.34033 11.4541 9.53004 11.4541 9.76319C11.4541 9.99635 11.2644 10.1861 11.0313 10.1861ZM11.0313 9.7173C11.0059 9.7173 10.9854 9.73788 10.9854 9.76319C10.9854 9.7885 11.0059 9.80908 11.0313 9.80908C11.0566 9.80908 11.0771 9.7885 11.0771 9.76319C11.0771 9.73788 11.0565 9.7173 11.0313 9.7173Z" fill="#1A1918"/>
<path d="M18.0606 14.563C17.8274 14.563 17.6377 14.3733 17.6377 14.1401C17.6377 13.907 17.8274 13.7173 18.0606 13.7173C18.2937 13.7173 18.4834 13.907 18.4834 14.1401C18.4834 14.3733 18.2937 14.563 18.0606 14.563ZM18.0606 14.0943C18.0352 14.0943 18.0147 14.1148 18.0147 14.1401C18.0147 14.1655 18.0352 14.186 18.0606 14.186C18.0859 14.186 18.1064 14.1655 18.1064 14.1401C18.1064 14.1148 18.0859 14.0943 18.0606 14.0943Z" fill="#1A1918"/>
</svg>
