<svg width="24" height="24" viewBox="0 0 24 24" fill="none" xmlns="http://www.w3.org/2000/svg">
<g clip-path="url(#clip0_1_49877)">
<path d="M4.69141 10.5714C4.69141 12.1486 5.97139 13.4285 7.54853 13.4285C8.14853 13.4285 8.70851 13.24 9.16569 12.9257L9.14282 13.1428C9.14282 14.7199 10.4228 15.9999 11.9999 15.9999C13.5771 15.9999 14.8571 14.7199 14.8571 13.1428L14.8342 12.9257C15.297 13.2456 15.8514 13.4285 16.4514 13.4285C18.0285 13.4285 19.3085 12.1486 19.3085 10.5714C19.3085 9.43425 18.6399 8.45711 17.6742 7.99998C18.6342 7.54286 19.3085 6.56571 19.3085 5.42855C19.3085 3.85141 18.0285 2.57143 16.4514 2.57143C15.8514 2.57143 15.2914 2.76 14.8342 3.0743L14.8571 2.85718C14.8571 1.27998 13.5771 0 12 0C10.4229 0 9.14287 1.27998 9.14287 2.85713L9.16575 3.07425C8.70283 2.75427 8.14858 2.57143 7.54858 2.57143C5.97144 2.57143 4.69146 3.85141 4.69146 5.42855C4.69146 6.56571 5.36003 7.54286 6.32576 7.99998C5.35998 8.45716 4.69141 9.4343 4.69141 10.5714ZM12 5.14286C13.5771 5.14286 14.8571 6.42284 14.8571 7.99998C14.8571 9.57712 13.5771 10.8572 12 10.8572C10.4229 10.8572 9.14287 9.57718 9.14287 8.00004C9.14287 6.42289 10.4229 5.14286 12 5.14286Z" fill="#1A1918"/>
<path d="M1.71387 13.7144C1.71387 19.3944 6.31956 24.0001 11.9996 24.0001C11.9996 18.3201 7.39389 13.7144 1.71387 13.7144Z" fill="#1A1918"/>
<path d="M12 24.0001C17.68 24.0001 22.2857 19.3944 22.2857 13.7144C16.6057 13.7144 12 18.3201 12 24.0001Z" fill="#1A1918"/>
</g>
<defs>
<clipPath id="clip0_1_49877">
<rect width="24" height="24" fill="white"/>
</clipPath>
</defs>
</svg>
