<svg width="24" height="24" viewBox="0 0 24 24" fill="none" xmlns="http://www.w3.org/2000/svg">
<path d="M22.1216 9.86823C16.4483 11.6342 14.5355 15.7455 13.8903 18.3427C13.8018 16.4921 13.7104 11.883 14.6129 7.05522C14.6182 7.02668 14.614 6.99716 14.6009 6.97128C14.5877 6.94539 14.5664 6.92458 14.5401 6.91209C14.5139 6.8996 14.4843 6.89614 14.4559 6.90224C14.4275 6.90834 14.402 6.92366 14.3832 6.94581C13.453 8.05178 10.8071 11.6583 10.6113 17.1024C10.6113 17.1024 9.05893 6.73712 2.24139 3.61215C2.2158 3.60039 2.18711 3.59713 2.15954 3.60283C2.13196 3.60854 2.10692 3.62292 2.0881 3.64386C2.06927 3.66481 2.05764 3.69123 2.0549 3.71926C2.05216 3.74729 2.05846 3.77546 2.07287 3.79965C3.03381 5.39556 6.85806 12.0504 6.89968 16.9594C6.89968 16.9594 4.29761 14.4456 1.34378 14.1732C1.317 14.1708 1.29013 14.1767 1.26677 14.19C1.24342 14.2033 1.22469 14.2234 1.21309 14.2477C1.2015 14.2719 1.19759 14.2992 1.2019 14.3257C1.2062 14.3522 1.21851 14.3768 1.23718 14.3962C2.14764 15.3379 5.36992 18.7462 5.61489 20.0525L5.67006 20.3835H3.73881C3.67789 20.3825 3.61874 20.404 3.57274 20.4439C3.52673 20.4839 3.49712 20.5394 3.48957 20.5999C3.48629 20.6333 3.49003 20.6669 3.50055 20.6988C3.51107 20.7306 3.52814 20.7599 3.55065 20.7847C3.57317 20.8096 3.60065 20.8294 3.6313 20.843C3.66195 20.8566 3.69511 20.8636 3.72864 20.8636H19.6842C19.7451 20.8646 19.8043 20.843 19.8503 20.8031C19.8963 20.7631 19.9259 20.7076 19.9334 20.6471C19.9367 20.6137 19.933 20.58 19.9224 20.5482C19.9119 20.5164 19.8949 20.4871 19.8723 20.4623C19.8498 20.4374 19.8223 20.4176 19.7917 20.404C19.761 20.3905 19.7279 20.3834 19.6944 20.3835H16.9236C17.6065 15.4132 21.133 11.2895 22.2576 10.0837C22.2773 10.0624 22.2894 10.0352 22.2921 10.0063C22.2947 9.97734 22.2878 9.94837 22.2723 9.92382C22.2568 9.89927 22.2336 9.88051 22.2064 9.87046C22.1792 9.86041 22.1494 9.85963 22.1216 9.86823Z" fill="#1A1918"/>
</svg>
