<svg width="24" height="24" viewBox="0 0 24 24" fill="none" xmlns="http://www.w3.org/2000/svg">
<path d="M21.6559 16.5537C19.8195 16.5537 18.3256 14.4409 18.3256 11.8439C18.3256 9.24684 19.8195 7.134 21.6559 7.134C21.9485 7.134 22.2181 6.97594 22.3611 6.72067C22.5039 6.4654 22.4977 6.15293 22.3448 5.90356L20.1573 2.33652C20.0279 2.12561 19.809 1.9855 19.5633 1.95649C19.3175 1.92723 19.0722 2.01257 18.897 2.18751C18.1363 2.94822 16.8987 2.94806 16.1381 2.18751C15.7696 1.81911 15.5667 1.3291 15.5666 0.807984C15.5665 0.36177 15.2048 0 14.7585 0H9.24059C8.79438 0 8.43261 0.36177 8.43253 0.807984C8.43245 1.3291 8.22946 1.81911 7.86107 2.18751C7.10052 2.94822 5.86272 2.94806 5.10209 2.18751C4.92699 2.01257 4.68117 1.92723 4.43584 1.95649C4.19011 1.9855 3.97121 2.12561 3.84184 2.33652L1.6544 5.90356C1.50144 6.15293 1.49522 6.4654 1.63816 6.72067C1.78103 6.97594 2.05068 7.134 2.34328 7.134C4.17969 7.134 5.67364 9.24684 5.67364 11.8439C5.67364 14.4409 4.17969 16.5537 2.34328 16.5537C2.06773 16.5537 1.81117 16.6941 1.66265 16.9262C1.51404 17.1583 1.49408 17.4502 1.60956 17.7003L2.989 20.6895C3.13938 21.0153 3.48661 21.2034 3.84143 21.1502C3.89872 21.1418 9.6035 20.3349 11.2289 23.5559C11.3651 23.8257 11.6404 23.997 11.9425 23.9999C11.9451 23.9999 11.9477 23.9999 11.9504 23.9999C12.2495 23.9999 12.5246 23.8345 12.6646 23.5698C14.4119 20.2675 20.1213 20.9159 20.1788 20.9229C20.5181 20.9643 20.8465 20.7878 20.9993 20.4821L22.3788 17.723C22.504 17.4725 22.4906 17.1751 22.3434 16.9369C22.1961 16.6987 21.936 16.5537 21.6559 16.5537ZM12.5652 18.7414C12.5652 19.0538 12.312 19.307 11.9996 19.307C11.6872 19.307 11.4339 19.0538 11.4339 18.7414V18.3777C11.4339 18.0653 11.6872 17.8121 11.9996 17.8121C12.312 17.8121 12.5652 18.0653 12.5652 18.3777V18.7414ZM12.5652 16.0329C12.5652 16.3453 12.312 16.5985 11.9996 16.5985C11.6872 16.5985 11.4339 16.3453 11.4339 16.0329V15.3521C11.4339 15.0397 11.6872 14.7864 11.9996 14.7864C12.312 14.7864 12.5652 15.0397 12.5652 15.3521V16.0329ZM12.5652 13.0073C12.5652 13.3197 12.312 13.573 11.9996 13.573C11.6872 13.573 11.4339 13.3197 11.4339 13.0073V12.3265C11.4339 12.0141 11.6872 11.7609 11.9996 11.7609C12.312 11.7609 12.5652 12.0141 12.5652 12.3265V13.0073ZM12.5652 9.9817C12.5652 10.2941 12.312 10.5473 11.9996 10.5473C11.6872 10.5473 11.4339 10.2941 11.4339 9.9817V9.30098C11.4339 8.98859 11.6872 8.73534 11.9996 8.73534C12.312 8.73534 12.5652 8.98859 12.5652 9.30098V9.9817ZM12.5652 6.95622C12.5652 7.26862 12.312 7.52187 11.9996 7.52187C11.6872 7.52187 11.4339 7.26862 11.4339 6.95622V6.27543C11.4339 5.96303 11.6872 5.70978 11.9996 5.70978C12.312 5.70978 12.5652 5.96303 12.5652 6.27543V6.95622ZM12.5652 3.93067C12.5652 4.24307 12.312 4.49631 11.9996 4.49631C11.6872 4.49631 11.4339 4.24307 11.4339 3.93067V3.56704C11.4339 3.25464 11.6872 3.00139 11.9996 3.00139C12.312 3.00139 12.5652 3.25464 12.5652 3.56704V3.93067Z" fill="#1A1918"/>
</svg>
