<svg width="24" height="24" viewBox="0 0 24 24" fill="none" xmlns="http://www.w3.org/2000/svg">
<path d="M11.1356 17.6885L9.89453 22.2203L16.2866 19.6635L15.0192 12.0591L11.1356 17.6885Z" fill="#1A1918"/>
<path d="M11.6006 3.96082L15.684 9.4053L23.9996 6.63344L18.8759 1.50968C18.677 1.31079 18.3787 1.24957 18.1176 1.35401L11.6006 3.96082Z" fill="#1A1918"/>
<path d="M4.01509 10.4219L0.508789 15.752L6.1502 14.4974L4.01509 10.4219Z" fill="#1A1918"/>
<path d="M10.321 16.3956L14.5614 10.2492L10.6095 4.97998L9.47205 7.25487C9.39887 7.40117 9.27695 7.51737 9.12728 7.58337L5.05469 9.37981L7.74442 14.5139L10.321 16.3956Z" fill="#1A1918"/>
<path d="M0 17.3046L2.50064 22.3059C2.61975 22.5441 2.86322 22.6946 3.12952 22.6946H8.3077L9.68391 17.6694L7.04025 15.7388L0 17.3046Z" fill="#1A1918"/>
<path d="M17.495 18.3708L21.4091 13.152L23.9138 8.14258L16.2178 10.7079L17.495 18.3708Z" fill="#1A1918"/>
</svg>
