<svg width="24" height="24" viewBox="0 0 24 24" fill="none" xmlns="http://www.w3.org/2000/svg">
<path d="M11.3014 14.605H6.28418C6.47168 16.527 6.86637 18.446 7.44059 20.2215H11.3014V14.605Z" fill="#1A1918"/>
<path d="M12.7051 14.605V20.2215H16.5728C17.1463 18.4468 17.5407 16.5277 17.728 14.605H12.7051Z" fill="#1A1918"/>
<path d="M4.82131 23.8153C4.88333 23.929 5.00206 23.9997 5.13125 23.9997H18.9082C19.0381 23.9997 19.157 23.9286 19.2188 23.8141C19.5831 23.1387 19.9186 22.4047 20.2217 21.6245C19.7479 21.6245 4.27752 21.6245 3.80469 21.6245C4.11294 22.4062 4.45325 23.1403 4.82131 23.8153Z" fill="#1A1918"/>
<path d="M4.87381 14.605H2.14648C2.33412 16.5273 2.72886 18.4465 3.30284 20.2215H5.96905C5.42436 18.4312 5.05114 16.5173 4.87381 14.605Z" fill="#1A1918"/>
<path d="M18.0439 20.2215H20.7167C21.2844 18.4395 21.6731 16.5208 21.856 14.605H19.138C18.9608 16.5179 18.5879 18.4318 18.0439 20.2215Z" fill="#1A1918"/>
<path d="M19.2188 0.185672C19.1571 0.0711562 19.038 0 18.9081 0H5.12953C5.00058 0 4.88189 0.0705 4.81978 0.184031C4.4378 0.882094 4.09533 1.63125 3.79688 2.39091H20.2282C19.9342 1.63566 19.5982 0.889922 19.2188 0.185672Z" fill="#1A1918"/>
<path d="M5.96258 3.79443H3.29614C2.72642 5.55956 2.33403 7.47661 2.14648 9.4057H4.87391C5.05133 7.48711 5.42234 5.57521 5.96258 3.79443Z" fill="#1A1918"/>
<path d="M21.9537 10.8096C21.2638 10.8096 3.68768 10.8096 2.04771 10.8096C2.01091 11.6604 2.01438 12.4652 2.04846 13.2005H21.9525C21.9883 12.3664 21.9866 11.5722 21.9537 10.8096Z" fill="#1A1918"/>
<path d="M11.3005 9.4057V3.79443H7.43286C6.86323 5.55923 6.4708 7.47642 6.2832 9.4057H11.3005Z" fill="#1A1918"/>
<path d="M12.7051 9.4057H17.7275C17.5405 7.49006 17.1478 5.57301 16.577 3.79443H12.7051V9.4057Z" fill="#1A1918"/>
<path d="M19.1371 9.4057H21.8596C21.673 7.47867 21.2851 5.56162 20.7232 3.79443H18.0469C18.5887 5.58721 18.9601 7.4992 19.1371 9.4057Z" fill="#1A1918"/>
</svg>
