<svg width="24" height="24" viewBox="0 0 24 24" fill="none" xmlns="http://www.w3.org/2000/svg">
<g clip-path="url(#clip0_1_50018)">
<path d="M23.5643 22.647C23.1351 21.9461 22.7454 19.8563 22.0058 18.3223C20.3999 19.9077 18.1952 20.888 15.7656 20.888C15.5742 20.888 15.3833 20.8811 15.1929 20.8688C14.6802 21.456 14.0913 21.9872 13.4277 22.4619C16.8845 23.9705 21.0438 24.0005 23.2784 24.0005C23.6585 24.0005 23.9838 23.7067 23.9994 23.3268C24.0119 23.0207 23.8285 22.7557 23.5643 22.647Z" fill="#1A1918"/>
<path d="M11.9983 20.0508C10.8251 20.6004 9.53868 20.888 8.23438 20.888C5.80476 20.888 3.60008 19.9077 1.99415 18.3223C1.25455 19.8563 0.86488 21.9461 0.435646 22.6469C0.171505 22.7557 -0.0118696 23.0206 0.00059915 23.3268C0.0161148 23.7067 0.341427 24.0005 0.721583 24.0005C3.64743 24.0005 9.87304 23.949 13.5006 20.5942C12.985 20.4585 12.4819 20.2773 11.9983 20.0508Z" fill="#1A1918"/>
<path d="M8.23423 19.4813C12.3435 19.4813 15.7155 16.1518 15.7155 12C15.7155 11.6117 16.0303 11.2969 16.4186 11.2969C16.8069 11.2969 17.1217 11.6117 17.1217 12C17.1217 14.9252 15.7084 17.5201 13.5274 19.1396C14.2459 19.3648 14.9989 19.4813 15.7654 19.4813C19.8906 19.4813 23.2467 16.1252 23.2467 12C23.2467 5.73595 17.6864 3.09159 14.5663 1.60059C13.8266 1.24706 12.9147 0.811312 12.6917 0.57675C12.6321 0.248719 12.345 0 11.9998 0C11.6546 0 11.3676 0.248719 11.308 0.57675C11.0849 0.811312 10.1731 1.24711 9.43334 1.60059C5.21196 3.61791 0.75293 6.28303 0.75293 12C0.75293 16.1252 4.10904 19.4813 8.23423 19.4813Z" fill="#1A1918"/>
</g>
<defs>
<clipPath id="clip0_1_50018">
<rect width="24" height="24" fill="white"/>
</clipPath>
</defs>
</svg>
