<svg width="24" height="24" viewBox="0 0 24 24" fill="none" xmlns="http://www.w3.org/2000/svg">
<g clip-path="url(#clip0_1_49890)">
<path d="M18.4764 9.63397L14.3418 5.49924C14.0225 5.17997 13.7809 4.81232 13.6152 4.41992C11.7756 5.48152 9.50774 6.79985 7.55129 8.58226C5.55686 10.3993 4.76222 11.856 4.18457 13.9662L10.0094 19.791C12.1195 19.2133 13.5763 18.4187 15.3932 16.4243C17.1752 14.4683 18.4933 12.2011 19.5548 10.3618C19.1568 10.1933 18.791 9.9485 18.4764 9.63397Z" fill="#1A1918"/>
<path d="M22.9055 4.11908L23.4093 3.61531C24.1968 2.82775 24.1968 1.54635 23.4093 0.75879L23.2499 0.59946C22.4624 -0.188101 21.181 -0.188101 20.3934 0.59946L19.8896 1.10323L22.9055 4.11908Z" fill="#1A1918"/>
<path d="M2.78322 14.5529C2.58324 14.3529 2.28193 14.2897 2.02087 14.3985C1.66902 14.5452 1.34582 14.7606 1.06812 15.0383L0.684914 15.4215C0.610006 15.4964 0.549067 15.5852 0.513207 15.6849C0.417628 15.9507 0.487988 16.2355 0.676663 16.4241L7.54345 23.2909C7.61836 23.3658 7.70719 23.4268 7.80685 23.4628C8.07273 23.5586 8.35769 23.4882 8.54646 23.2995L8.93782 22.908C9.21552 22.6303 9.43096 22.3071 9.57768 21.9552C9.68652 21.6942 9.62324 21.3929 9.42327 21.1929L2.78322 14.5529Z" fill="#1A1918"/>
<path d="M18.3196 1.5224C17.9422 1.14491 17.4403 0.937012 16.9064 0.937012C16.3725 0.937012 15.8706 1.14491 15.4932 1.5224L15.3363 1.6792C14.5572 2.45846 14.5572 3.7264 15.3364 4.50567L19.4709 8.64026C19.8606 9.02984 20.3723 9.22461 20.8841 9.22461C21.3959 9.22461 21.9078 9.02984 22.2973 8.64021L22.4541 8.48341C23.2334 7.70415 23.2334 6.4362 22.4541 5.65694L18.3196 1.5224Z" fill="#1A1918"/>
<path d="M0.703717 23.9927C1.0715 23.9927 1.42386 23.6693 1.40684 23.2896C1.38978 22.9086 1.09789 22.5864 0.703717 22.5864C0.335936 22.5864 -0.0164233 22.9098 0.00059228 23.2896C0.0176548 23.6705 0.309499 23.9927 0.703717 23.9927Z" fill="#1A1918"/>
<path d="M4.01817 23.396C4.38595 23.396 4.73831 23.0726 4.7213 22.6929C4.70423 22.3119 4.41234 21.9897 4.01817 21.9897C3.65039 21.9897 3.29803 22.3131 3.31505 22.6929C3.33211 23.0738 3.624 23.396 4.01817 23.396Z" fill="#1A1918"/>
<path d="M1.3004 20.6797C1.66818 20.6797 2.02054 20.3563 2.00352 19.9766C1.98646 19.5956 1.69457 19.2734 1.3004 19.2734C0.932616 19.2734 0.580256 19.5968 0.597272 19.9766C0.614334 20.3575 0.906178 20.6797 1.3004 20.6797Z" fill="#1A1918"/>
</g>
<defs>
<clipPath id="clip0_1_49890">
<rect width="24" height="24" fill="white"/>
</clipPath>
</defs>
</svg>
