<svg width="24" height="24" viewBox="0 0 24 24" fill="none" xmlns="http://www.w3.org/2000/svg">
<path d="M3.61059 21.9989H10.4544C8.99594 21.4374 7.68293 20.5849 6.53557 19.4416C6.18813 19.0821 6.08713 18.569 6.26893 18.1246C6.45073 17.664 6.89109 17.3691 7.38801 17.3691C7.86473 17.361 8.34146 17.3408 8.81818 17.3044V11.8989C8.81818 11.2323 9.36358 10.6869 10.0302 10.6869H13.8238L13.7066 8.60224C13.6783 7.95988 13.145 7.45487 12.4986 7.45487H11.2422V5.83887H5.58616V7.45487H4.32972C3.68331 7.45487 3.15407 7.95988 3.12175 8.5982L2.46727 19.5749L2.40263 20.7183C2.38243 21.0536 2.49959 21.3727 2.72987 21.6192C2.95611 21.8616 3.27931 21.9989 3.61059 21.9989Z" fill="#1A1918"/>
<path d="M9.62598 11.8996V17.2203C11.1369 17.0466 12.656 16.7113 14.167 16.2143L13.868 11.4956H10.03C9.80778 11.4956 9.62598 11.6774 9.62598 11.8996Z" fill="#1A1918"/>
<path d="M7.01636 18.4283C6.95576 18.5778 6.99212 18.7515 7.10524 18.8686C9.19797 20.9493 11.8603 21.9997 15.0358 21.9997C15.3711 21.9997 15.7105 21.9875 16.0539 21.9633C17.3427 21.8785 18.3729 20.9089 18.5547 19.6807C19.2253 19.6282 20.5949 19.3736 21.2898 18.1616C21.3988 17.9677 21.3342 17.7213 21.1403 17.6082C20.9463 17.4991 20.6999 17.5637 20.5868 17.7576C20.106 18.602 19.096 18.8161 18.5547 18.8646C18.4456 18.1616 18.0618 17.5395 17.4598 17.1153C16.7407 16.6062 15.8519 16.481 15.0196 16.78C12.4865 17.6768 9.91709 18.1455 7.38804 18.1778C7.2224 18.1778 7.07696 18.2788 7.01636 18.4283Z" fill="#1A1918"/>
<path d="M4.37373 5.03133H12.4538C12.676 5.03133 12.8578 4.84953 12.8578 4.62733C12.8578 3.20524 11.8033 2.02556 10.4338 1.83164V3.01132C10.4338 3.23352 10.252 3.41532 10.0298 3.41532C9.80756 3.41532 9.62575 3.23352 9.62575 3.01132V1.79932H8.81775V3.01132C8.81775 3.23352 8.63595 3.41532 8.41375 3.41532C8.19155 3.41532 8.00975 3.23352 8.00975 3.01132V1.79932H7.20174V3.01132C7.20174 3.23352 7.01994 3.41532 6.79774 3.41532C6.57554 3.41532 6.39374 3.23352 6.39374 3.01132V1.83164C5.02417 2.02556 3.96973 3.20524 3.96973 4.62733C3.96973 4.84953 4.15153 5.03133 4.37373 5.03133Z" fill="#1A1918"/>
</svg>
