<svg width="24" height="24" viewBox="0 0 24 24" fill="none" xmlns="http://www.w3.org/2000/svg">
<g clip-path="url(#clip0_1_50023)">
<path d="M13.1001 2.88734C12.4607 2.65748 11.7835 2.55073 11.1044 2.57272C11.9248 0.515277 14.6509 -0.415696 17.5806 0.174964C16.5356 0.841478 15.4875 2.2144 14.7786 3.99665L14.7606 4.0395C14.2996 3.53684 13.7323 3.14327 13.1001 2.88734ZM11.9518 8.14065C12.9051 8.14065 13.8039 8.16681 14.6394 8.21608L13.9535 9.8153C13.332 9.84146 12.6762 9.85515 11.9518 9.85515C10.9351 9.85515 9.97156 9.82472 9.07486 9.7694L8.33549 8.28636C9.45118 8.19081 10.6599 8.14065 11.9518 8.14065ZM3.92957 3.65118L0.364651 2.66789C0.254854 2.63765 0.161607 2.56498 0.10549 2.46592C0.0493727 2.36686 0.0349801 2.24952 0.065453 2.13981L0.0697192 2.12439C0.132306 1.8965 0.367604 1.76228 0.595636 1.82435L4.53645 2.90065C4.65581 2.93399 4.7552 3.01683 4.80949 3.12826L8.07994 9.69017C7.72847 9.65787 7.38286 9.62004 7.04306 9.57658L4.19918 3.87321C4.14489 3.76426 4.04686 3.68353 3.92957 3.65118ZM5.61664 8.63956L6.00885 9.42651C5.3738 9.32323 4.74591 9.18006 4.12886 8.99787C4.6183 8.85287 5.11487 8.73328 5.61664 8.63956ZM11.9518 24C6.50969 23.9939 2.09945 19.5837 2.09331 14.1415C2.0665 12.5516 2.42505 10.9789 3.1383 9.55769C4.28676 9.98581 5.4842 10.2688 6.70279 10.4C7.36931 10.4908 8.06583 10.5611 8.77135 10.6083C9.75333 10.6773 10.8236 10.7124 11.9518 10.7124C12.7941 10.7124 13.5497 10.6953 14.2608 10.6606C14.9402 10.6284 15.6098 10.5787 16.2514 10.5131C17.7931 10.4062 19.3125 10.0847 20.7653 9.55773C21.4785 10.9789 21.8371 12.5516 21.8103 14.1415C21.8042 19.5836 17.394 23.9939 11.9518 24ZM19.7735 8.99792C18.8322 9.26932 17.8701 9.46242 16.8969 9.57527L17.3684 8.48654C18.1817 8.59704 18.9856 8.76797 19.7735 8.99792ZM15.9158 9.6837C15.5852 9.71512 15.2492 9.74198 14.9077 9.76429L16.8254 5.29283C16.9722 5.32555 17.1166 5.36854 17.2574 5.42143C17.4017 5.47914 17.5415 5.5473 17.6757 5.62545L15.9158 9.6837ZM17.5673 4.62585C16.9266 4.38891 16.2417 4.29514 15.5609 4.35107L15.5746 4.31634C16.6033 1.72955 18.281 0.300044 19.1563 0.635668H19.1593H19.1635C19.4084 0.751091 19.5967 0.960042 19.686 1.21559C20.1177 2.20573 19.9432 3.97982 19.2471 5.73548L19.2291 5.78091C18.7678 5.27633 18.2 4.88074 17.5669 4.62275L17.5673 4.62585ZM23.7216 7.46597L23.7027 7.47113C22.8451 6.57471 21.6566 6.07036 20.416 6.07636C20.2801 6.07636 20.1532 6.08452 20.0302 6.09352L20.0456 6.05536C20.7357 4.31812 20.9479 2.58345 20.6389 1.36744C21.9137 2.09903 22.9372 3.19943 23.5746 4.52388C24.0184 5.44351 24.0718 6.5035 23.7224 7.46302L23.7216 7.46597Z" fill="#1A1918"/>
</g>
<defs>
<clipPath id="clip0_1_50023">
<rect width="24" height="24" fill="white"/>
</clipPath>
</defs>
</svg>
