<svg width="24" height="24" viewBox="0 0 24 24" fill="none" xmlns="http://www.w3.org/2000/svg">
<g clip-path="url(#clip0_1_49983)">
<path d="M22.6667 10.0598C23.1588 8.74452 23.3852 7.37033 23.3397 5.97486C23.2858 4.33236 22.8669 3.0523 22.6012 2.39497L19.3438 5.65236C20.1331 8.80634 20.4926 11.5085 20.4131 13.6886C20.4118 13.7252 20.4101 13.7608 20.4088 13.796C21.4179 12.6253 22.175 11.3728 22.6667 10.0598ZM18.1741 6.82203L15.8916 9.10456C16.8186 12.8131 16.8582 15.4727 16.7375 17.0198C17.4839 16.4988 18.1635 15.9701 18.7749 15.4338C18.9784 14.6418 19.3881 12.081 18.1741 6.82203ZM3.92334 12.5964C3.50273 13.4718 3.08911 14.3961 2.68317 15.3687C4.03472 15.0385 5.92659 14.7619 7.97405 15.0272L10.215 12.7862C6.31795 12.1422 4.51322 12.4408 3.92334 12.5964ZM7.66022 17.336L0.997453 23.9987C1.66209 23.8129 4.01845 23.1283 6.97294 21.9832L6.97327 21.9829C7.28283 21.017 7.71605 19.2937 7.66022 17.336ZM2.01586 17.0261C0.870469 19.9803 0.185859 22.3366 0 23.0013L6.66272 16.3385C4.70503 16.2827 2.98144 16.7162 2.01586 17.0261ZM11.2125 13.7837L8.97155 16.0246C9.23686 18.0721 8.96025 19.964 8.63006 21.3155C9.60258 20.9095 10.5269 20.4959 11.4023 20.0753C11.558 19.4855 11.8565 17.6808 11.2125 13.7837ZM5.96583 8.813C5.54025 9.50792 5.12063 10.2493 4.70705 11.036C5.97717 10.911 8.09044 10.9383 11.432 11.5693L13.7225 9.2788C9.3007 8.29231 6.67336 8.67134 5.96583 8.813ZM14.7193 10.2769L12.4294 12.5668C13.0605 15.9082 13.0877 18.0215 12.9627 19.2917C13.7487 18.8787 14.4895 18.4591 15.1841 18.0339C15.3224 17.3237 15.6975 14.6704 14.7193 10.2769ZM8.56687 5.22177C8.02992 5.83386 7.50023 6.51383 6.97889 7.26125C8.52595 7.14055 11.1855 7.18011 14.8941 8.10711L17.1766 5.82458C11.9017 4.60602 9.34856 5.01927 8.56687 5.22177ZM18.0239 0.659048C16.6284 0.613485 15.2543 0.839939 13.9389 1.33199C12.6259 1.82375 11.3734 2.58083 10.2027 3.58991C10.238 3.58859 10.2735 3.58691 10.3101 3.58559C12.4902 3.50614 15.1924 3.86553 18.3464 4.65486L21.6038 1.39747C20.9464 1.13183 19.6664 0.712907 18.0239 0.659048Z" fill="#1A1918"/>
<path d="M23.7933 1.20393L22.601 2.39624C22.4816 2.1013 22.3932 1.93175 22.3822 1.9108C22.3161 1.78611 22.2136 1.68369 22.089 1.61755C22.068 1.60658 21.8985 1.51813 21.6035 1.39879L22.7958 0.206473C23.0711 -0.0688242 23.518 -0.0688242 23.7933 0.206473C24.0686 0.48177 24.0686 0.928629 23.7933 1.20393Z" fill="#1A1918"/>
</g>
<defs>
<clipPath id="clip0_1_49983">
<rect width="24" height="24" fill="white"/>
</clipPath>
</defs>
</svg>
