<svg width="24" height="24" viewBox="0 0 24 24" fill="none" xmlns="http://www.w3.org/2000/svg">
<g clip-path="url(#clip0_1_50010)">
<path d="M17.6081 8.21643C16.7599 8.21643 15.8885 8.42249 15.0132 8.82946C14.9143 7.14268 14.1972 5.82092 13.5886 4.98749C12.8803 4.01728 12.177 3.49229 12.1474 3.47044C12.0599 3.4058 11.9405 3.40557 11.8527 3.47044C11.8231 3.49229 11.1199 4.01728 10.4115 4.98749C9.80297 5.82092 9.08588 7.14273 8.98698 8.82946C8.1116 8.42249 7.24025 8.21643 6.39201 8.21643C4.34898 8.21643 3.14811 9.39439 3.09795 9.44454C3.0515 9.49104 3.02539 9.55409 3.02539 9.61981C3.02539 9.6627 3.03186 10.6832 3.5952 11.804C4.08382 12.776 5.09274 13.9941 7.14833 14.4624C6.32709 15.4733 5.89678 16.7691 5.89922 18.2381C5.90128 19.4637 6.19879 20.3703 6.21145 20.4083C6.24515 20.5095 6.33993 20.5778 6.44662 20.5778C6.49255 20.5778 7.58679 20.5737 8.84546 20.2124C10.3263 19.7875 11.4058 19.04 12 18.0354C12.5942 19.04 13.6738 19.7875 15.1546 20.2124C16.4132 20.5737 17.5074 20.5778 17.5534 20.5778C17.6602 20.5778 17.7549 20.5095 17.7886 20.4083C17.8013 20.3703 18.0988 19.4637 18.1008 18.2381C18.1033 16.7691 17.673 15.4733 16.8517 14.4624C18.9073 13.9941 19.9162 12.776 20.4048 11.804C20.9682 10.6832 20.9746 9.6627 20.9746 9.61981C20.9746 9.55409 20.9485 9.491 20.9021 9.44454C20.852 9.39439 19.6508 8.21643 17.6081 8.21643ZM12.0001 14.9529C10.8887 14.9529 9.98447 14.0487 9.98447 12.9373C9.98447 11.8259 10.8887 10.9217 12.0001 10.9217C13.1115 10.9217 14.0157 11.8259 14.0157 12.9373C14.0157 14.0487 13.1115 14.9529 12.0001 14.9529Z" fill="#1A1918"/>
<path d="M22.9673 6.87915L21.1357 7.85195C21.5732 8.1377 21.8334 8.38702 21.8968 8.4504C22.0235 8.57715 22.1266 8.72096 22.205 8.87635L23.6269 8.1211C23.9699 7.93895 24.1002 7.51327 23.9181 7.17029C23.7359 6.82735 23.3101 6.69704 22.9673 6.87915Z" fill="#1A1918"/>
<path d="M0.373431 18.8783C0.0304977 19.0605 -0.0998601 19.4861 0.082294 19.8291C0.265339 20.1738 0.691709 20.3016 1.0331 20.1202L4.49337 18.2824C4.48962 17.7033 4.54244 17.1457 4.65091 16.6064L0.373431 18.8783Z" fill="#1A1918"/>
<path d="M0.373431 15.8785C0.0304977 16.0607 -0.0998601 16.4863 0.082294 16.8293C0.265339 17.174 0.691709 17.3018 1.0331 17.1204L4.86372 15.0859C4.37267 14.8094 3.95844 14.4928 3.60969 14.1597L0.373431 15.8785Z" fill="#1A1918"/>
<path d="M19.7594 7.17492L23.6263 5.12112C23.9693 4.93896 24.0996 4.5133 23.9175 4.17032C23.7353 3.82734 23.3096 3.69702 22.9667 3.87918L17.4434 6.81272C18.2427 6.79303 19.0193 6.91486 19.7594 7.17492Z" fill="#1A1918"/>
<path d="M12 13.5469C12.3365 13.5469 12.6094 13.274 12.6094 12.9375C12.6094 12.601 12.3365 12.3281 12 12.3281C11.6635 12.3281 11.3906 12.601 11.3906 12.9375C11.3906 13.274 11.6635 13.5469 12 13.5469Z" fill="#1A1918"/>
</g>
<defs>
<clipPath id="clip0_1_50010">
<rect width="24" height="24" fill="white"/>
</clipPath>
</defs>
</svg>
