<svg width="48" height="48" viewBox="0 0 48 48" fill="none" xmlns="http://www.w3.org/2000/svg">
<path d="M32.35 25.9963H10C9.43333 25.9963 8.95833 25.8046 8.575 25.4213C8.19167 25.038 8 24.563 8 23.9963C8 23.4296 8.19167 22.9546 8.575 22.5713C8.95833 22.188 9.43333 21.9963 10 21.9963H32.35L22.55 12.1963C22.15 11.7963 21.9583 11.3296 21.975 10.7963C21.9917 10.263 22.2 9.79631 22.6 9.39631C23 9.02965 23.4667 8.83798 24 8.82131C24.5333 8.80465 25 8.99631 25.4 9.39631L38.6 22.5963C38.8 22.7963 38.9417 23.013 39.025 23.2463C39.1083 23.4796 39.15 23.7296 39.15 23.9963C39.15 24.263 39.1083 24.513 39.025 24.7463C38.9417 24.9796 38.8 25.1963 38.6 25.3963L25.4 38.5963C25.0333 38.963 24.575 39.1463 24.025 39.1463C23.475 39.1463 23 38.963 22.6 38.5963C22.2 38.1963 22 37.7213 22 37.1713C22 36.6213 22.2 36.1463 22.6 35.7463L32.35 25.9963Z" fill="#31302F"/>
</svg>
