<svg width="48" height="48" viewBox="0 0 48 48" fill="none" xmlns="http://www.w3.org/2000/svg">
<path d="M23.9996 29.8998C23.7329 29.8998 23.4829 29.8581 23.2496 29.7748C23.0163 29.6915 22.7996 29.5498 22.5996 29.3498L13.3996 20.1498C13.0329 19.7831 12.8496 19.3165 12.8496 18.7498C12.8496 18.1831 13.0329 17.7165 13.3996 17.3498C13.7663 16.9831 14.2329 16.7998 14.7996 16.7998C15.3663 16.7998 15.8329 16.9831 16.1996 17.3498L23.9996 25.1498L31.7996 17.3498C32.1663 16.9831 32.6329 16.7998 33.1996 16.7998C33.7663 16.7998 34.2329 16.9831 34.5996 17.3498C34.9663 17.7165 35.1496 18.1831 35.1496 18.7498C35.1496 19.3165 34.9663 19.7831 34.5996 20.1498L25.3996 29.3498C25.1996 29.5498 24.9829 29.6915 24.7496 29.7748C24.5163 29.8581 24.2663 29.8998 23.9996 29.8998Z" fill="#484746"/>
</svg>
