<svg width="48" height="48" viewBox="0 0 48 48" fill="none" xmlns="http://www.w3.org/2000/svg">
<path d="M24.0004 18.1002C24.2671 18.1002 24.5171 18.1419 24.7504 18.2252C24.9837 18.3085 25.2004 18.4502 25.4004 18.6502L34.6004 27.8502C34.9671 28.2169 35.1504 28.6835 35.1504 29.2502C35.1504 29.8169 34.9671 30.2835 34.6004 30.6502C34.2337 31.0169 33.7671 31.2002 33.2004 31.2002C32.6337 31.2002 32.1671 31.0169 31.8004 30.6502L24.0004 22.8502L16.2004 30.6502C15.8337 31.0169 15.3671 31.2002 14.8004 31.2002C14.2337 31.2002 13.7671 31.0169 13.4004 30.6502C13.0337 30.2835 12.8504 29.8169 12.8504 29.2502C12.8504 28.6835 13.0337 28.2169 13.4004 27.8502L22.6004 18.6502C22.8004 18.4502 23.0171 18.3085 23.2504 18.2252C23.4837 18.1419 23.7337 18.1002 24.0004 18.1002Z" fill="#484746"/>
</svg>
