<svg width="48" height="48" viewBox="0 0 48 48" fill="none" xmlns="http://www.w3.org/2000/svg">
<g clip-path="url(#clip0_1_50090)">
<path fill="black" d="M34 6.67978C37.0404 8.43516 39.5652 10.9599 41.3205 14.0003C43.0759 17.0408 44 20.4897 44 24.0004C44 27.5112 43.0758 30.9601 41.3204 34.0005C39.565 37.0408 37.0402 39.5656 33.9998 41.3209C30.9594 43.0763 27.5104 44.0004 23.9997 44.0003C20.4889 44.0002 17.04 43.076 13.9997 41.3206C10.9593 39.5652 8.43458 37.0403 6.67927 33.9999C4.92396 30.9595 3.99991 27.5105 4 23.9998L4.01 23.3518C4.12201 19.8978 5.1271 16.5317 6.92728 13.5818C8.72746 10.6318 11.2613 8.19869 14.2818 6.51955C17.3023 4.84041 20.7063 3.97258 24.162 4.00066C27.6177 4.02874 31.0072 4.95178 34 6.67978ZM24 29.9998C23.4696 29.9998 22.9609 30.2105 22.5858 30.5856C22.2107 30.9606 22 31.4694 22 31.9998V32.0198C22 32.5502 22.2107 33.0589 22.5858 33.434C22.9609 33.8091 23.4696 34.0198 24 34.0198C24.5304 34.0198 25.0391 33.8091 25.4142 33.434C25.7893 33.0589 26 32.5502 26 32.0198V31.9998C26 31.4694 25.7893 30.9606 25.4142 30.5856C25.0391 30.2105 24.5304 29.9998 24 29.9998ZM24 15.9998C23.4696 15.9998 22.9609 16.2105 22.5858 16.5856C22.2107 16.9606 22 17.4694 22 17.9998V25.9998C22 26.5302 22.2107 27.0389 22.5858 27.414C22.9609 27.7891 23.4696 27.9998 24 27.9998C24.5304 27.9998 25.0391 27.7891 25.4142 27.414C25.7893 27.0389 26 26.5302 26 25.9998V17.9998C26 17.4694 25.7893 16.9606 25.4142 16.5856C25.0391 16.2105 24.5304 15.9998 24 15.9998Z"/>
</g>
<defs>
<clipPath id="clip0_1_50090">
<rect width="48" height="48" fill="white"/>
</clipPath>
</defs>
</svg>
