<svg width="48" height="48" viewBox="0 0 48 48" fill="none" xmlns="http://www.w3.org/2000/svg">
<path d="M15.65 22.0037L38 22.0037C38.5667 22.0037 39.0417 22.1954 39.425 22.5787C39.8083 22.962 40 23.437 40 24.0037C40 24.5704 39.8083 25.0454 39.425 25.4287C39.0417 25.812 38.5667 26.0037 38 26.0037L15.65 26.0037L25.45 35.8037C25.85 36.2037 26.0417 36.6704 26.025 37.2037C26.0083 37.737 25.8 38.2037 25.4 38.6037C25 38.9704 24.5333 39.162 24 39.1787C23.4667 39.1954 23 39.0037 22.6 38.6037L9.4 25.4037C9.2 25.2037 9.05833 24.987 8.975 24.7537C8.89167 24.5204 8.85 24.2704 8.85 24.0037C8.85 23.737 8.89167 23.487 8.975 23.2537C9.05833 23.0204 9.2 22.8037 9.4 22.6037L22.6 9.40369C22.9667 9.03702 23.425 8.85369 23.975 8.85369C24.525 8.85369 25 9.03702 25.4 9.40369C25.8 9.80369 26 10.2787 26 10.8287C26 11.3787 25.8 11.8537 25.4 12.2537L15.65 22.0037Z" fill="#31302F"/>
</svg>
