<svg width="48" height="48" viewBox="0 0 48 48" fill="none" xmlns="http://www.w3.org/2000/svg">
<path d="M22 35.9985C25.8667 35.9985 29.1667 34.6402 31.9 31.9235C34.6333 29.2069 36 25.8985 36 21.9985C36 18.1319 34.6333 14.8319 31.9 12.0985C29.1667 9.3652 25.8667 7.99854 22 7.99854C18.1 7.99854 14.7917 9.3652 12.075 12.0985C9.35833 14.8319 8 18.1319 8 21.9985C8 25.8985 9.35833 29.2069 12.075 31.9235C14.7917 34.6402 18.1 35.9985 22 35.9985ZM22 39.9985C19.5 39.9985 17.1583 39.5235 14.975 38.5735C12.7917 37.6235 10.8917 36.3402 9.275 34.7235C7.65833 33.1069 6.375 31.2069 5.425 29.0235C4.475 26.8402 4 24.4985 4 21.9985C4 19.5319 4.475 17.2069 5.425 15.0235C6.375 12.8402 7.65833 10.9319 9.275 9.29854C10.8917 7.6652 12.7917 6.37354 14.975 5.42354C17.1583 4.47354 19.5 3.99854 22 3.99854C24.4667 3.99854 26.7917 4.47354 28.975 5.42354C31.1583 6.37354 33.0667 7.6652 34.7 9.29854C36.3333 10.9319 37.625 12.8402 38.575 15.0235C39.525 17.2069 40 19.5319 40 21.9985C40 24.1319 39.65 26.1485 38.95 28.0485C38.25 29.9485 37.2833 31.6819 36.05 33.2485L42.6 39.7985C43 40.1985 43.1917 40.6652 43.175 41.1985C43.1583 41.7319 42.95 42.1985 42.55 42.5985C42.15 42.9652 41.6833 43.1485 41.15 43.1485C40.6167 43.1485 40.15 42.9652 39.75 42.5985L33.2 36.0985C31.6333 37.3319 29.9 38.2902 28 38.9735C26.1 39.6569 24.1 39.9985 22 39.9985Z" fill="#31302F"/>
</svg>
