<svg width="48" height="48" viewBox="0 0 48 48" fill="none" xmlns="http://www.w3.org/2000/svg">
<path d="M24 37.0143L14.3055 43.1294C13.8772 43.4147 13.4295 43.537 12.9623 43.4963C12.4951 43.4555 12.0863 43.2924 11.7358 43.0071C11.3854 42.7217 11.1129 42.365 10.9182 41.9369C10.7236 41.5089 10.6846 41.0299 10.8014 40.4999L13.3711 28.9425L4.78616 21.1764C4.39683 20.8095 4.15349 20.3916 4.05615 19.9228C3.95882 19.454 3.98802 18.9953 4.14376 18.5469C4.29949 18.0985 4.53309 17.7316 4.84456 17.4462C5.15603 17.1608 5.58431 16.9774 6.12938 16.8958L17.4591 15.8563L21.8392 4.97152C22.0338 4.48231 22.3356 4.11541 22.7444 3.87081C23.1532 3.62621 23.5717 3.50391 24 3.50391C24.4283 3.50391 24.8468 3.62621 25.2556 3.87081C25.6644 4.11541 25.9662 4.48231 26.1608 4.97152L30.5409 15.8563L41.8706 16.8958C42.4157 16.9774 42.844 17.1608 43.1554 17.4462C43.4669 17.7316 43.7005 18.0985 43.8562 18.5469C44.012 18.9953 44.0412 19.454 43.9438 19.9228C43.8465 20.3916 43.6032 20.8095 43.2138 21.1764L34.6289 28.9425L37.1986 40.4999C37.3154 41.0299 37.2764 41.5089 37.0818 41.9369C36.8871 42.365 36.6146 42.7217 36.2641 43.0071C35.9137 43.2924 35.5049 43.4555 35.0377 43.4963C34.5705 43.537 34.1228 43.4147 33.6945 43.1294L24 37.0143Z" fill="#31302F"/>
</svg>
