<svg width="143" height="31" viewBox="0 0 143 31" fill="none" xmlns="http://www.w3.org/2000/svg">
<path d="M41.5166 12.3623H51.8486V0.130859H57.7773V29.3389C57.7773 29.6501 57.6748 29.9275 57.4697 30.1328C57.2727 30.3298 57.0232 30.4184 56.7998 30.4463L56.7695 30.4502H51.8486V17.499H41.5166V29.3389C41.5166 29.6024 41.458 29.9049 41.2344 30.1387C41.0066 30.3767 40.698 30.4502 40.4053 30.4502H35.4805V0.130859H41.5166V12.3623ZM88.6543 0.78418L78.2959 17.6436V29.4102C78.2959 29.6857 78.2018 29.9545 78.001 30.1553C77.8002 30.356 77.5313 30.4502 77.2559 30.4502H71.9717V17.6416L61.791 0.817383L61.332 0.0585938H68.3291L68.4746 0.300781L75.2734 11.5977L81.9697 0.267578L82.1152 0.0224609H89.123L88.6543 0.78418ZM5.93457 21.1279C5.93457 21.5404 6.00961 21.9324 6.16113 22.3037C6.31276 22.6613 6.52033 22.9778 6.78223 23.2529C7.05789 23.5142 7.37505 23.7208 7.7334 23.8721C8.09162 24.0232 8.47732 24.0986 8.89062 24.0986C9.30415 24.0986 9.69044 24.0234 10.0488 23.8721C10.4072 23.7208 10.7176 23.5143 10.9795 23.2529C11.2551 22.9779 11.4685 22.6612 11.6201 22.3037C11.7717 21.9324 11.8477 21.5405 11.8477 21.1279V0H17.7812V21.1279C17.7813 21.5404 17.8573 21.9324 18.0088 22.3037C18.1604 22.6613 18.368 22.9778 18.6299 23.2529C18.9054 23.5141 19.2219 23.7208 19.5801 23.8721C19.9384 24.0234 20.3248 24.0986 20.7383 24.0986C21.1518 24.0986 21.5381 24.0234 21.8965 23.8721C22.2548 23.7208 22.5653 23.5142 22.8271 23.2529C23.1027 22.9779 23.3162 22.6612 23.4678 22.3037C23.6331 21.9324 23.7158 21.5405 23.7158 21.1279V0H29.6289V21.1279C29.6289 22.3519 29.3953 23.5073 28.9268 24.5938C28.4719 25.6666 27.8376 26.6094 27.0244 27.4209C26.2249 28.2187 25.2804 28.8517 24.1914 29.3193C23.1163 29.7732 21.9651 30 20.7383 30C19.6357 30 18.5746 29.8069 17.5547 29.4219C16.5485 29.0368 15.6384 28.4732 14.8252 27.7305C14.012 28.4732 13.0951 29.0367 12.0752 29.4219C11.0552 29.807 9.99337 30 8.89062 30C7.66391 30 6.50588 29.7732 5.41699 29.3193C4.34196 28.8517 3.39816 28.2186 2.58496 27.4209C1.78547 26.6093 1.15128 25.6667 0.682617 24.5938C0.22782 23.5072 7.08658e-07 22.352 0 21.1279V0H5.93457V21.1279ZM109.781 19.7051V0.207031H115.716V28.7939C115.716 29.3462 115.268 29.7939 114.716 29.7939H109.368L97.9346 10.3174V28.7939C97.9346 29.3461 97.4867 29.7937 96.9346 29.7939H92V0.207031H98.3477L109.781 19.7051ZM142.04 6.12891H127.649V12.0498H137.388V17.9717H127.649V23.873H142.04V28.7939C142.04 29.3461 141.592 29.7938 141.04 29.7939H121.715V0.207031H142.04V6.12891Z" fill="white"/>
</svg>
